P3
# Created by GIMP version 2.10.32 PNM plug-in
2 3
255
0
0
255
255
0
255
0
0
255
255
0
255
0
0
255
255
0
255
